<?xml version="1.0" encoding="UTF-8"?>
<svg width="1104.97" height="1104.97" xmlns="http://www.w3.org/2000/svg" xmlns:svg="http://www.w3.org/2000/svg">
 <title>teal scallop circle frame</title>
 <defs>
  <pattern height="100" width="100" y="0" x="0" patternUnits="userSpaceOnUse" id="gridpattern">
   <image height="100" width="100" y="0" x="0" id="svg_4"/>
  </pattern>
 </defs>
 <metadata id="metadata3237">image/svg+xml</metadata>
 <g>
  <title>Layer 1</title>
  <g id="layer1">
   <path d="m496.848241,7.678952c-14.717166,0.150571 -29.519832,5.329835 -40.401718,15.019051c-4.690207,4.175885 -8.628675,8.986683 -11.816388,14.220396c-12.943509,2.764135 -25.708145,6.017233 -38.275289,9.736294c-5.266041,-3.114419 -11.016509,-5.436572 -17.163959,-6.818443c-23.838149,-5.35932 -50.645872,5.530433 -64.46001,25.891604c-3.57585,5.269784 -6.216245,10.968675 -7.959479,16.923301c-11.726956,6.049568 -23.195475,12.53876 -34.386906,19.442218c-5.929321,-1.619718 -12.12493,-2.343087 -18.438488,-2.027596c-24.391372,1.219703 -47.504325,18.584495 -55.560104,41.893494c-2.080274,6.016928 -3.156277,12.212742 -3.311546,18.397745c-9.759688,8.885844 -19.212788,18.132399 -28.281691,27.734731c-6.149445,-0.009838 -12.331307,0.922885 -18.347091,2.886597c-23.239714,7.586521 -41.223224,30.321553 -43.014599,54.946573c-0.461846,6.340282 0.094335,12.589169 1.51918,18.582519c-7.174341,11.13851 -13.922603,22.574839 -20.262083,34.276495c-5.871246,1.562733 -11.574852,3.964761 -16.889819,7.278902c-20.786524,12.959719 -32.292296,40.42416 -27.582544,64.652114c1.209644,6.223334 3.343276,12.068265 6.257723,17.445385c-4.052751,12.601946 -7.638054,25.422093 -10.75365,38.423081c-5.287354,3.093986 -10.137232,6.957524 -14.398796,11.609299c-16.593893,18.11569 -20.517995,47.147759 -10.024522,69.444415c2.721159,5.781076 6.302237,10.938993 10.540906,15.448266c-0.468332,9.142374 -0.729029,18.351562 -0.729029,27.611867c0,4.098417 0.05945,8.17818 0.151918,12.255004c-4.305489,4.312696 -8.034554,9.28292 -10.996659,14.834965c-11.595114,21.730541 -8.120163,51.465369 8.019618,69.995807c4.130184,4.742216 8.888282,8.724678 14.064695,11.948359c2.733934,13.086496 5.951332,25.991166 9.629693,38.699269c-3.080319,5.323064 -5.37707,11.168987 -6.743841,17.383476c-5.300522,24.103113 5.469931,51.206882 25.608102,65.174964c5.212673,3.61492 10.847689,6.28425 16.737901,8.046509c5.979239,11.847146 12.406863,23.430891 19.229119,34.737437c-1.601428,5.995296 -2.317388,12.259928 -2.005199,18.643465c1.206303,24.660403 18.381091,48.029395 41.435084,56.175121c5.950949,2.102272 12.078756,3.190323 18.195763,3.347558c8.787855,9.86768 17.934368,19.425814 27.430724,28.594696c-0.009827,6.220366 0.911911,12.465322 2.855586,18.551078c7.503529,23.496702 29.989549,41.678262 54.344573,43.486705c6.271293,0.471743 12.45119,-0.088475 18.378526,-1.533218c11.008648,7.25329 22.305222,14.084028 33.871014,20.492155c1.545741,5.946222 3.945367,11.68597 7.229399,17.071906c12.81769,21.013089 39.982125,32.649868 63.944099,27.892959c6.155301,-1.228548 11.936271,-3.381024 17.254373,-6.329539c12.463945,4.098476 25.144103,7.715381 38.002092,10.870254c3.059958,5.346583 6.881501,10.280452 11.482286,14.585285c17.917682,16.777123 46.63173,20.718316 68.683428,10.113448c5.71808,-2.751997 10.819959,-6.378612 15.280215,-10.663769c9.042391,0.471743 18.149618,0.737129 27.308895,0.737129c4.043602,0 8.068554,-0.059029 12.089545,-0.147455c4.27259,4.363744 9.200608,8.108418 14.703428,11.115845c21.492569,11.725313 50.902374,8.2068 69.229812,-8.108418c4.695061,-4.186784 8.657162,-8.983036 11.84682,-14.221645c12.933643,-2.761717 25.686527,-6.02481 38.244787,-9.739842c5.266041,3.11552 11.046971,5.434999 17.193468,6.820841c23.839142,5.356421 50.646875,-5.503876 64.460973,-25.858542c3.577884,-5.277843 6.216304,-10.997905 7.958497,-16.953965c11.725001,-6.054197 23.199435,-12.511515 34.387889,-19.411003c5.918521,1.611806 12.107302,2.30971 18.408045,1.995133c24.391412,-1.21871 47.504354,-18.585448 55.560133,-41.894457c2.079262,-6.016948 3.155295,-12.213735 3.311536,-18.397745c9.769475,-8.895701 19.234396,-18.121568 28.311151,-27.734722c6.143549,0.0069 12.308696,-0.924822 18.317602,-2.886607c23.239734,-7.586521 41.222252,-30.322526 43.014648,-54.946573c0.460854,-6.341245 -0.094344,-12.58914 -1.519199,-18.582519c7.165487,-11.130657 13.926131,-22.552194 20.264255,-34.245054c5.886074,-1.563706 11.565762,-3.990325 16.891784,-7.310343c20.783105,-12.95969 32.289918,-40.42416 27.582976,-64.652114c-1.218478,-6.223304 -3.350754,-12.068265 -6.259482,-17.445385c4.048515,-12.593101 7.635224,-25.401433 10.750269,-38.392613c5.286676,-3.093986 10.170426,-6.987009 14.425259,-11.639767c16.597008,-18.116654 20.48827,-47.117291 9.993618,-69.412974c-2.712129,-5.782039 -6.298837,-10.971397 -10.533997,-15.479707c0.668134,-14.235444 0.864734,-26.761721 0.579725,-39.836403c4.313861,-4.318573 8.028314,-9.301574 10.995814,-14.865433c11.59534,-21.730541 8.116713,-51.466361 -8.028186,-69.995807c-4.127206,-4.748093 -8.873375,-8.753141 -14.061806,-11.978827c-2.731674,-13.076667 -5.954801,-25.970536 -9.629909,-38.668801c3.085536,-5.324027 5.375076,-11.13851 6.750808,-17.352998c5.296513,-24.103123 -5.44393,-51.206892 -25.578455,-65.174001c-5.21794,-3.616846 -10.877896,-6.285243 -16.773866,-8.047472c-5.984379,-11.855972 -12.371615,-23.453487 -19.200996,-34.767914c1.601722,-5.99334 2.289529,-12.262867 1.97514,-18.643465c-1.198865,-24.661395 -18.377583,-48.030338 -41.431576,-56.175121c-5.950969,-2.102302 -12.079768,-3.190294 -18.195792,-3.347558c-8.797681,-9.878501 -17.923558,-19.447417 -27.430695,-28.625173c0.005876,-6.208591 -0.915841,-12.447641 -2.855596,-18.5206c-7.503519,-23.496722 -29.98953,-41.679235 -54.344593,-43.490607c-6.270281,-0.466848 -12.452153,0.096318 -18.378536,1.536177c-11.016509,-7.254331 -22.327794,-14.077197 -33.901486,-20.486484c-1.546664,-5.936345 -3.921734,-11.703052 -7.198897,-17.07682c-12.818673,-21.016725 -39.982125,-32.649996 -63.944099,-27.888044c-6.155301,1.223044 -11.936242,3.380277 -17.254343,6.327023c-12.45516,-4.094604 -25.123468,-7.724227 -37.971659,-10.872652c-3.06095,-5.347133 -6.91101,-10.248844 -11.513711,-14.558296c-17.916719,-16.777644 -46.600324,-20.745265 -68.651993,-10.135523c-5.719043,2.75126 -10.850431,6.371939 -15.310687,10.657607c-9.041369,-0.473433 -18.120108,-0.737129 -27.278423,-0.737129c-4.056377,0 -8.117676,0.060051 -12.151501,0.153618c-4.265632,-4.353189 -9.180876,-8.123554 -14.671944,-11.118361c-8.730871,-4.762737 -18.75783,-7.013634 -28.828065,-6.910633l0.00001,0z" stroke-width="0.1" stroke-miterlimit="4" fill="#ff007f" id="path3240"/>
   <text xml:space="preserve" y="465.0265" x="539.0265" transform="matrix(47.9217,0,0,8.23333,-25276.8,-3242.63) " text-anchor="middle" stroke-width="0" stroke-linejoin="null" stroke-linecap="null" stroke-dasharray="null" fill="#ff007f" font-size="24" font-family="Arial" id="svg_3"/>
  </g>
  <ellipse stroke="#ffffff" ry="473.160504" rx="480.58022" cy="553.22352" cx="555.927208" stroke-width="12" fill="#ffffff" id="svg_1"/>
  <ellipse rx="8" cy="273.026" cx="453.026" stroke-width="5" stroke="#000000" fill="#007f7f" id="svg_2"/>
  <text xml:space="preserve" y="477.0265" x="597.0265" transform="matrix(51.9648,0,0,8.73715,-30477,-3569.72) " text-anchor="middle" stroke-width="0" stroke-linejoin="null" stroke-linecap="null" stroke-dasharray="null" stroke="#ffffff" fill="#000000" font-size="24" font-family="Arial" id="svg_5"/>
  <path stroke="#ffffff" id="svg_6" d="m103.694836,555.869476c0,-248.823406 202.961315,-450.370365 453.530841,-450.370365c250.569525,0 453.530841,201.546959 453.530841,450.370365c0,248.823406 -202.961315,450.370365 -453.530841,450.370365c-250.569525,0 -453.530841,-201.546959 -453.530841,-450.370365z" stroke-linecap="null" stroke-linejoin="null" stroke-dasharray="null" stroke-width="12" fill="#ff007f"/>
  <ellipse id="svg_8" cy="114.98061" cx="15.201003" stroke-linecap="null" stroke-linejoin="null" stroke-dasharray="null" stroke-width="12" stroke="#ffffff" fill="#ffffff"/>
  <ellipse id="svg_9" cy="276.16579" cx="-60.650847" stroke-linecap="null" stroke-linejoin="null" stroke-dasharray="null" stroke-width="12" stroke="#ffffff" fill="#ffffff"/>
  <ellipse id="svg_10" cy="298.289246" cx="-104.897759" stroke-linecap="null" stroke-linejoin="null" stroke-dasharray="null" stroke-width="12" stroke="#ffffff" fill="#ffffff"/>
  <ellipse id="svg_15" cy="279.326284" cx="-161.786646" stroke-linecap="null" stroke-linejoin="null" stroke-dasharray="null" stroke-width="12" stroke="#ffffff" fill="#ffffff"/>
  <ellipse id="svg_16" cy="279.326284" cx="-161.786646" stroke-linecap="null" stroke-linejoin="null" stroke-dasharray="null" stroke-width="12" stroke="#ffffff" fill="#ffffff"/>
 </g>
</svg>